<svg width="50" height="53" viewBox="0 0 50 53" fill="none" xmlns="http://www.w3.org/2000/svg">
<g clip-path="url(#clip0)">
<path d="M38.4305 29.4419C32.0475 29.4419 26.8613 34.709 26.8613 41.1916C26.8613 47.6742 32.0475 52.9413 38.4305 52.9413C44.8135 52.9413 49.9996 47.6742 49.9996 41.1916C49.9996 34.709 44.8135 29.4419 38.4305 29.4419ZM43.4837 39.2198L38.1911 44.5949C37.872 44.9191 37.3667 44.9191 37.0741 44.5949L34.7071 42.191C34.3879 41.8669 34.3879 41.3537 34.7071 41.0565C35.0262 40.7594 35.5315 40.7324 35.8241 41.0565L37.0475 42.299C37.3667 42.6232 37.872 42.6232 38.1645 42.299L42.3135 38.0853C42.6326 37.7612 43.1379 37.7612 43.4305 38.0853C43.723 38.4095 43.8028 38.9227 43.4837 39.2198Z" fill="#DDDDDD"/>
<path d="M39.7611 4.59184C39.176 4.59184 38.6973 4.10564 38.6973 3.5114V1.08043C38.6973 0.486194 39.176 0 39.7611 0C40.3462 0 40.8249 0.486194 40.8249 1.08043V3.5114C40.8249 4.10564 40.3462 4.59184 39.7611 4.59184Z" fill="#DDDDDD"/>
<path d="M7.31366 4.29447C6.80834 4.29447 6.38281 3.8623 6.38281 3.3491V1.24225C6.38281 0.729048 6.80834 0.296875 7.31366 0.296875C7.81898 0.296875 8.24452 0.729048 8.24452 1.24225V3.3491C8.24452 3.8623 7.81898 4.29447 7.31366 4.29447Z" fill="#DDDDDD"/>
<path d="M45.4787 3.78185C44.6543 2.94451 43.5106 2.43131 42.234 2.43131C41.9681 2.43131 41.7553 2.64739 41.7553 2.9175V3.64679C41.7553 4.86228 40.7181 5.80766 39.4947 5.64559C38.9894 5.59157 38.5638 5.32146 38.2447 4.94331C37.9255 4.56516 37.766 4.07897 37.766 3.56576C37.766 2.9175 37.2606 2.4043 36.6223 2.4043H10.4521C9.84043 2.4043 9.30851 2.9175 9.30851 3.56576V3.64679C9.30851 4.86228 8.27128 5.80766 7.04787 5.64559C6.03723 5.51054 5.31915 4.59217 5.31915 3.56576V2.89049C5.31915 2.62038 5.10638 2.4043 4.84043 2.4043H4.57447C2.04787 2.43131 0 4.51114 0 7.07717V43.9739C0 46.54 2.04787 48.6198 4.57447 48.6198H22.1011C23.3777 48.6198 24.3085 47.3773 23.9628 46.1078C23.5638 44.6222 23.3511 43.0556 23.4043 41.4349C23.617 33.1696 30.1862 26.3629 38.3245 25.9577C40.3989 25.8497 42.3936 26.1738 44.2287 26.8221C45.4787 27.2813 46.8085 26.3359 46.8085 24.9583V7.07717C46.8085 5.80766 46.3032 4.64619 45.4787 3.78185ZM10.5319 29.6312C10.5319 30.1174 10.133 30.5226 9.65426 30.5226H6.94149C6.46277 30.5226 6.06383 30.1174 6.06383 29.6312V26.8491C6.06383 26.3629 6.46277 25.9577 6.94149 25.9577H9.65426C10.133 25.9577 10.5319 26.3629 10.5319 26.8491V29.6312V29.6312ZM10.5319 17.4763C10.5319 17.9625 10.133 18.3677 9.65426 18.3677H6.94149C6.46277 18.3677 6.06383 17.9625 6.06383 17.4763V14.6942C6.06383 14.208 6.46277 13.8029 6.94149 13.8029H9.65426C10.133 13.8029 10.5319 14.208 10.5319 14.6942V17.4763V17.4763ZM20.9043 29.6312C20.9043 30.1174 20.5053 30.5226 20.0266 30.5226H17.3138C16.8351 30.5226 16.4362 30.1174 16.4362 29.6312V26.8491C16.4362 26.3629 16.8351 25.9577 17.3138 25.9577H20.0266C20.5053 25.9577 20.9043 26.3629 20.9043 26.8491V29.6312ZM20.9043 17.4763C20.9043 17.9625 20.5053 18.3677 20.0266 18.3677H17.3138C16.8351 18.3677 16.4362 17.9625 16.4362 17.4763V14.6942C16.4362 14.208 16.8351 13.8029 17.3138 13.8029H20.0266C20.5053 13.8029 20.9043 14.208 20.9043 14.6942V17.4763ZM32.3404 17.4763C32.3404 17.9625 31.9415 18.3677 31.4628 18.3677H28.75C28.2713 18.3677 27.8723 17.9625 27.8723 17.4763V14.6942C27.8723 14.208 28.2713 13.8029 28.75 13.8029H31.4628C31.9415 13.8029 32.3404 14.208 32.3404 14.6942V17.4763Z" fill="#DDDDDD"/>
</g>
<defs>
<clipPath id="clip0">
<rect width="50" height="52.9412" fill="white"/>
</clipPath>
</defs>
</svg>
