<svg width="50" height="50" viewBox="0 0 50 50" fill="none" xmlns="http://www.w3.org/2000/svg">
<g clip-path="url(#clip0)">
<path d="M31.9502 0.474808L12.2751 -0.000192147C5.85015 -0.150192 0.50015 4.94981 0.35015 11.3748L0.000149777 25.2248C-0.29985 37.0998 9.10015 46.9498 20.9752 47.2248C21.1502 47.2248 21.3252 47.2248 21.5002 47.2248C22.4002 47.2248 23.3001 47.1748 24.1751 47.0498C25.6751 46.8498 26.6002 45.2998 26.0752 43.8748C25.5252 42.3748 25.2252 40.7748 25.2252 39.0998C25.2252 37.5998 25.4502 36.1748 25.9002 34.8248C25.8252 34.4998 25.7752 34.1748 25.7752 33.8248C25.8252 32.1998 26.8752 30.8498 28.3252 30.3748C30.8752 27.2498 34.7501 25.2498 39.1001 25.2498C39.5751 25.2498 40.0251 25.2748 40.5001 25.3248C41.8501 25.4498 43.0251 24.3998 43.0501 23.0498L43.3001 12.4248C43.4751 5.97481 38.3752 0.624808 31.9502 0.474808ZM12.4752 37.2248C10.8002 36.9748 9.50015 35.5748 9.32515 33.8998C9.07515 31.4498 11.2001 29.4248 13.6251 29.7998C15.3001 30.0498 16.6002 31.4248 16.7752 33.0998C17.0502 35.5998 14.9252 37.6248 12.4752 37.2248ZM30.4752 16.1998C30.3502 21.0248 26.3502 24.8498 21.5252 24.7498C16.7002 24.6248 12.8751 20.6248 13.0001 15.7998L13.1251 10.8748C13.1751 8.74981 14.9251 7.07481 17.0501 7.12481L26.8752 7.37481C29.0002 7.42481 30.6752 9.17481 30.6252 11.2998L30.4752 16.1998Z" fill="#DDDDDD"/>
<path d="M21.5503 19.8746C21.8753 19.7246 22.0253 19.3496 21.8753 19.0246L20.9753 17.0746C20.7753 16.6496 21.1003 16.1496 21.5753 16.1496L23.7003 16.1996C24.1753 16.1996 24.5003 15.7246 24.3003 15.2996L22.6753 11.6246C22.5253 11.2996 22.1503 11.1496 21.8253 11.2996C21.5003 11.4496 21.3503 11.8246 21.5003 12.1496L22.3003 13.9496C22.5003 14.3746 22.1753 14.8746 21.7003 14.8496L19.5253 14.7996C19.0503 14.7996 18.7253 15.2746 18.9253 15.7246L20.7003 19.5496C20.8503 19.8746 21.2253 20.0246 21.5503 19.8746Z" fill="#DDDDDD"/>
<path d="M39.125 28.25C33.125 28.25 28.25 33.125 28.25 39.125C28.25 45.125 33.125 50 39.125 50C45.125 50 50 45.125 50 39.125C50 33.125 45.125 28.25 39.125 28.25ZM43.875 37.3L38.9 42.275C38.6 42.575 38.125 42.575 37.85 42.275L35.625 40.05C35.325 39.75 35.325 39.275 35.625 39C35.925 38.725 36.4 38.7 36.675 39L37.825 40.15C38.125 40.45 38.6 40.45 38.875 40.15L42.775 36.25C43.075 35.95 43.55 35.95 43.825 36.25C44.1 36.55 44.175 37.025 43.875 37.3Z" fill="#DDDDDD"/>
</g>
<defs>
<clipPath id="clip0">
<rect width="50" height="50" fill="white"/>
</clipPath>
</defs>
</svg>
