<svg width="30" height="26" viewBox="0 0 30 26" fill="none" xmlns="http://www.w3.org/2000/svg">
<path d="M1 1H3.24052C4.11021 1 4.88022 1.56203 5.14533 2.39034L8.65408 13.3529M29 17.7628H11.2276C10.2875 17.7628 9.4743 17.108 9.27369 16.1896L8.65408 13.3529M8.65408 13.3529H24.9398C25.8138 13.3529 26.5866 12.7854 26.8481 11.9514L28.0258 8.1958C28.4297 6.90755 27.4675 5.59738 26.1174 5.59738H10.8675" stroke="#EEEEEE" stroke-width="2" stroke-linecap="round"/>
<path d="M25.9845 23.2352C25.9845 24.0492 25.3264 24.7058 24.5186 24.7058C23.7108 24.7058 23.0527 24.0492 23.0527 23.2352C23.0527 22.4213 23.7108 21.7646 24.5186 21.7646C25.3264 21.7646 25.9845 22.4213 25.9845 23.2352Z" stroke="#EEEEEE" stroke-width="2"/>
<path d="M14.7159 23.2352C14.7159 24.0492 14.0579 24.7058 13.2501 24.7058C12.4423 24.7058 11.7842 24.0492 11.7842 23.2352C11.7842 22.4213 12.4423 21.7646 13.2501 21.7646C14.0579 21.7646 14.7159 22.4213 14.7159 23.2352Z" stroke="#EEEEEE" stroke-width="2"/>
</svg>
