<svg width="50" height="50" viewBox="0 0 50 50" fill="none" xmlns="http://www.w3.org/2000/svg">
<g clip-path="url(#clip0)">
<path d="M38.931 28.2173C32.8241 28.2173 27.8623 33.0996 27.8623 39.1086C27.8623 45.1176 32.8241 50 38.931 50C45.0379 50 49.9997 45.1176 49.9997 39.1086C49.9997 33.0996 45.0379 28.2173 38.931 28.2173ZM43.7656 37.3059L38.702 42.2884C38.3967 42.5889 37.9132 42.5889 37.6333 42.2884L35.3687 40.0601C35.0633 39.7596 35.0633 39.2839 35.3687 39.0085C35.674 38.7331 36.1575 38.708 36.4374 39.0085L37.6079 40.1602C37.9132 40.4607 38.3967 40.4607 38.6766 40.1602L42.646 36.2543C42.9514 35.9539 43.4348 35.9539 43.7147 36.2543C43.9946 36.5548 44.0455 37.0055 43.7656 37.3059Z" fill="#DDDDDD"/>
<path d="M19.898 28.7683C19.8216 28.6932 19.7453 28.6181 19.6689 28.543L19.8725 28.568L19.898 28.7683Z" fill="#DDDDDD"/>
<path d="M48.8296 22.9094C48.2443 10.5909 38.0916 0.600925 25.5726 0.0250615C11.196 -0.625915 -0.636092 11.0165 0.0254855 25.1628C0.610727 37.4812 10.7634 47.4712 23.2825 48.0471C23.3079 48.0471 23.3079 48.0471 23.3334 48.0471C25.4199 48.1472 26.9212 46.0441 26.1578 44.1412C25.5217 42.5889 25.1654 40.8863 25.1654 39.1087C25.1654 36.0791 26.1832 33.3 27.8881 31.0466C29.0077 29.5443 30.4581 28.2925 32.112 27.3661C34.1222 26.2394 36.4377 25.5884 38.9313 25.5884C40.9924 25.5884 42.9517 26.0391 44.7074 26.8403C46.6158 27.7166 48.8296 26.3646 48.855 24.3115C48.855 23.8358 48.855 23.3851 48.8296 22.9094ZM18.2952 42.0882C13.0026 40.3355 8.72777 36.3796 6.59037 31.347C5.67434 29.1688 7.53185 26.8152 9.9237 27.1658L17.8626 28.2925C18.4733 29.1938 19.2621 29.995 20.2036 30.5709L21.5013 39.4592C21.7303 41.2369 20 42.639 18.2952 42.0882ZM24.8601 27.2659C22.6972 27.5413 20.8652 25.7386 21.1451 23.6104C21.3232 22.1583 22.5191 20.9815 23.995 20.8062C26.1578 20.5308 27.9899 22.3335 27.71 24.4617C27.5318 25.9139 26.3359 27.0907 24.8601 27.2659ZM39.0586 21.1818L31.196 20.0551C29.8219 17.8017 27.3028 16.2744 24.4275 16.2744C21.5522 16.2744 19.0331 17.8017 17.6591 20.0551L9.79648 21.1818C7.43007 21.5323 5.57256 19.2038 6.46314 17.0256C9.28757 9.99001 16.285 5.00753 24.4275 5.00753C32.57 5.00753 39.5675 9.99001 42.4173 17.0256C43.2825 19.2038 41.425 21.5323 39.0586 21.1818Z" fill="#DDDDDD"/>
</g>
<defs>
<clipPath id="clip0">
<rect width="50" height="50" fill="white"/>
</clipPath>
</defs>
</svg>
