<svg width="50" height="50" viewBox="0 0 50 50" fill="none" xmlns="http://www.w3.org/2000/svg">
<path d="M45.475 6.25C44.1 6.25 43 5.125 43 3.775V0H3.15C1.425 0 0 1.425 0 3.15V46.825C0 48.575 1.425 49.975 3.15 49.975H24.025H27.125C28.3 49.975 28.95 48.625 28.225 47.7C26.225 45.175 25.1 41.95 25.25 38.45C25.575 31.35 31.35 25.575 38.45 25.25C41.925 25.075 45.15 26.2 47.675 28.175C48.625 28.925 50 28.25 50 27.05V6.25H45.475ZM4.5 34H11.5V35.25H4.5V34ZM9.9 23.4C8.8 23 8.125 22.45 8.125 21.5C8.125 20.725 8.6 20.075 9.4 19.825V19.375C9.4 19.025 9.675 18.75 10.025 18.75C10.2 18.75 10.35 18.825 10.475 18.925C10.6 19.025 10.65 19.2 10.65 19.375V19.7C10.975 19.725 11.25 19.8 11.45 19.875C11.65 19.95 11.725 20.15 11.675 20.35C11.625 20.5 11.475 20.6 11.325 20.6C11.275 20.6 11.225 20.6 11.2 20.575C10.975 20.5 10.65 20.425 10.275 20.425C9.35 20.425 9 20.975 9 21.425C9 22.05 9.4 22.375 10.325 22.725C11.45 23.175 12.05 23.725 12.05 24.7C12.05 25.5 11.6 26.225 10.65 26.5V26.9C10.65 27.25 10.375 27.525 10.025 27.525C9.675 27.525 9.4 27.25 9.4 26.9V26.625C9 26.6 8.6 26.5 8.275 26.375C8.1 26.3 8.025 26.1 8.075 25.925C8.15 25.7 8.375 25.6 8.575 25.7C8.925 25.85 9.325 25.95 9.75 25.95C10.625 25.95 11.15 25.475 11.15 24.8C11.175 24.125 10.825 23.75 9.9 23.4ZM7 40.75H4.5V39.5H7V40.75ZM20.75 40.75H9V39.5H20.75V40.75ZM20.75 35.25H13.5V34H20.75V35.25ZM22.25 13.375H4.5V12.125H22.25V13.375ZM4.5 7.375V6.125H26.75V7.375H4.5ZM36 13.375H24.75V12.125H36V13.375ZM36 7.375H29V6.125H36V7.375ZM45.475 5.175H47.625L44.075 1.6V3.75C44.075 4.55 44.7 5.175 45.475 5.175Z" fill="#DDDDDD"/>
<path d="M39.125 28.25C33.125 28.25 28.25 33.125 28.25 39.125C28.25 45.125 33.125 50 39.125 50C45.125 50 50 45.125 50 39.125C50 33.125 45.125 28.25 39.125 28.25ZM43.875 37.3L38.9 42.275C38.6 42.575 38.125 42.575 37.85 42.275L35.625 40.05C35.325 39.75 35.325 39.275 35.625 39C35.925 38.725 36.4 38.7 36.675 39L37.825 40.15C38.125 40.45 38.6 40.45 38.875 40.15L42.775 36.25C43.075 35.95 43.55 35.95 43.825 36.25C44.1 36.55 44.175 37.025 43.875 37.3Z" fill="#DDDDDD"/>
</svg>
