<svg width="30" height="26" viewBox="0 0 30 26" fill="none" xmlns="http://www.w3.org/2000/svg">
<path d="M1 1H3.24052C4.11021 1 4.88022 1.56203 5.14533 2.39034L8.65408 13.3529M29 17.7628H11.2276C10.2875 17.7628 9.4743 17.108 9.27369 16.1896L8.65408 13.3529M8.65408 13.3529H24.9398C25.8138 13.3529 26.5866 12.7854 26.8481 11.9514L28.0258 8.1958C28.4297 6.90755 27.4675 5.59738 26.1174 5.59738H10.8675" stroke="#EEEEEE" stroke-width="1.2" stroke-linecap="round"/>
<path d="M26.3847 23.2352C26.3847 24.2694 25.5483 25.1058 24.5189 25.1058C23.4894 25.1058 22.653 24.2694 22.653 23.2352C22.653 22.2011 23.4894 21.3646 24.5189 21.3646C25.5483 21.3646 26.3847 22.2011 26.3847 23.2352Z" stroke="#EEEEEE" stroke-width="1.2"/>
<path d="M15.1157 23.2352C15.1157 24.2694 14.2792 25.1058 13.2498 25.1058C12.2204 25.1058 11.3839 24.2694 11.3839 23.2352C11.3839 22.2011 12.2204 21.3646 13.2498 21.3646C14.2792 21.3646 15.1157 22.2011 15.1157 23.2352Z" stroke="#EEEEEE" stroke-width="1.2"/>
</svg>
