<svg width="421" height="60" viewBox="0 0 421 60" fill="none" xmlns="http://www.w3.org/2000/svg">
<mask id="path-1-outside-1" maskUnits="userSpaceOnUse" x="102" y="14" width="319" height="30" fill="black">
<rect fill="white" x="102" y="14" width="319" height="30"/>
<path d="M125.269 15.2284V41.8751H122.947L105.817 20.2532V41.8751H103V15.2284H105.322L122.49 36.8503V15.2284H125.269Z"/>
<path d="M164.648 42.1035C162.009 42.1035 159.611 41.5198 157.454 40.3524C155.322 39.1597 153.647 37.5355 152.429 35.4799C151.236 33.4243 150.64 31.1149 150.64 28.5518C150.64 25.9886 151.236 23.6792 152.429 21.6236C153.647 19.568 155.322 17.9565 157.454 16.7891C159.611 15.5964 162.009 15 164.648 15C167.287 15 169.66 15.5837 171.767 16.7511C173.898 17.9184 175.573 19.5426 176.791 21.6236C178.01 23.6792 178.619 25.9886 178.619 28.5518C178.619 31.1149 178.01 33.437 176.791 35.518C175.573 37.5736 173.898 39.1851 171.767 40.3524C169.66 41.5198 167.287 42.1035 164.648 42.1035ZM164.648 39.5911C166.755 39.5911 168.658 39.1216 170.358 38.1826C172.058 37.2183 173.391 35.8986 174.355 34.2237C175.32 32.5234 175.802 30.6327 175.802 28.5518C175.802 26.4708 175.32 24.5928 174.355 22.9179C173.391 21.2176 172.058 19.8979 170.358 18.9589C168.658 17.9946 166.755 17.5124 164.648 17.5124C162.542 17.5124 160.626 17.9946 158.9 18.9589C157.2 19.8979 155.855 21.2176 154.865 22.9179C153.901 24.5928 153.418 26.4708 153.418 28.5518C153.418 30.6327 153.901 32.5234 154.865 34.2237C155.855 35.8986 157.2 37.2183 158.9 38.1826C160.626 39.1216 162.542 39.5911 164.648 39.5911Z"/>
<path d="M222.162 41.8751L216.071 33.3101C215.386 33.3862 214.675 33.4243 213.94 33.4243H206.783V41.8751H203.966V15.2284H213.94C217.34 15.2284 220.005 16.0405 221.934 17.6647C223.862 19.2889 224.827 21.5221 224.827 24.3644C224.827 26.4454 224.294 28.2092 223.228 29.6557C222.187 31.0768 220.69 32.1046 218.736 32.7391L225.245 41.8751H222.162ZM213.863 31.0261C216.503 31.0261 218.52 30.4424 219.916 29.275C221.312 28.1076 222.01 26.4708 222.01 24.3644C222.01 22.2073 221.312 20.5577 219.916 19.4157C218.52 18.2484 216.503 17.6647 213.863 17.6647H206.783V31.0261H213.863Z"/>
<path d="M250.509 15.2284H261.358C264.174 15.2284 266.662 15.7994 268.819 16.9414C270.976 18.058 272.651 19.6315 273.843 21.6617C275.036 23.6665 275.633 25.9632 275.633 28.5518C275.633 31.1403 275.036 33.4497 273.843 35.4799C272.651 37.4847 270.976 39.0582 268.819 40.2002C266.662 41.3168 264.174 41.8751 261.358 41.8751H250.509V15.2284ZM261.205 39.4388C263.54 39.4388 265.583 38.982 267.334 38.0684C269.085 37.1295 270.443 35.8479 271.407 34.2237C272.372 32.5741 272.854 30.6835 272.854 28.5518C272.854 26.42 272.372 24.5421 271.407 22.9179C270.443 21.2683 269.085 19.9867 267.334 19.0731C265.583 18.1342 263.54 17.6647 261.205 17.6647H253.325V39.4388H261.205Z"/>
<path d="M317.779 28.133C319.53 28.5137 320.875 29.275 321.814 30.417C322.778 31.5336 323.261 32.9802 323.261 34.7566C323.261 37.0406 322.41 38.8044 320.71 40.0479C319.035 41.266 316.548 41.8751 313.249 41.8751H300.992V15.2284H312.488C315.457 15.2284 317.754 15.8248 319.378 17.0175C321.027 18.2103 321.852 19.8979 321.852 22.0804C321.852 23.5523 321.484 24.8085 320.748 25.849C320.038 26.8641 319.048 27.6255 317.779 28.133ZM303.808 17.5505V27.2194H312.297C314.454 27.2194 316.117 26.8134 317.284 26.0013C318.451 25.1638 319.035 23.9584 319.035 22.3849C319.035 20.8115 318.451 19.6188 317.284 18.8067C316.117 17.9692 314.454 17.5505 312.297 17.5505H303.808ZM313.211 39.553C315.596 39.553 317.398 39.147 318.616 38.3349C319.835 37.5228 320.444 36.2539 320.444 34.5282C320.444 31.2037 318.033 29.5415 313.211 29.5415H303.808V39.553H313.211Z"/>
<path d="M360.372 42.1035C357.733 42.1035 355.335 41.5198 353.177 40.3524C351.046 39.1597 349.371 37.5355 348.153 35.4799C346.96 33.4243 346.364 31.1149 346.364 28.5518C346.364 25.9886 346.96 23.6792 348.153 21.6236C349.371 19.568 351.046 17.9565 353.177 16.7891C355.335 15.5964 357.733 15 360.372 15C363.011 15 365.384 15.5837 367.491 16.7511C369.622 17.9184 371.297 19.5426 372.515 21.6236C373.733 23.6792 374.343 25.9886 374.343 28.5518C374.343 31.1149 373.733 33.437 372.515 35.518C371.297 37.5736 369.622 39.1851 367.491 40.3524C365.384 41.5198 363.011 42.1035 360.372 42.1035ZM360.372 39.5911C362.478 39.5911 364.382 39.1216 366.082 38.1826C367.782 37.2183 369.115 35.8986 370.079 34.2237C371.043 32.5234 371.526 30.6327 371.526 28.5518C371.526 26.4708 371.043 24.5928 370.079 22.9179C369.115 21.2176 367.782 19.8979 366.082 18.9589C364.382 17.9946 362.478 17.5124 360.372 17.5124C358.266 17.5124 356.35 17.9946 354.624 18.9589C352.924 19.8979 351.579 21.2176 350.589 22.9179C349.625 24.5928 349.142 26.4708 349.142 28.5518C349.142 30.6327 349.625 32.5234 350.589 34.2237C351.579 35.8986 352.924 37.2183 354.624 38.1826C356.35 39.1216 358.266 39.5911 360.372 39.5911Z"/>
<path d="M415.435 41.8751L406.832 30.1506L398.267 41.8751H395.031L405.157 28.1711L395.678 15.2284H398.914L406.946 26.1155L414.94 15.2284H417.985L408.545 28.095L418.708 41.8751H415.435Z"/>
</mask>
<path d="M125.269 15.2284V41.8751H122.947L105.817 20.2532V41.8751H103V15.2284H105.322L122.49 36.8503V15.2284H125.269Z" fill="#FAFAFA"/>
<path d="M164.648 42.1035C162.009 42.1035 159.611 41.5198 157.454 40.3524C155.322 39.1597 153.647 37.5355 152.429 35.4799C151.236 33.4243 150.64 31.1149 150.64 28.5518C150.64 25.9886 151.236 23.6792 152.429 21.6236C153.647 19.568 155.322 17.9565 157.454 16.7891C159.611 15.5964 162.009 15 164.648 15C167.287 15 169.66 15.5837 171.767 16.7511C173.898 17.9184 175.573 19.5426 176.791 21.6236C178.01 23.6792 178.619 25.9886 178.619 28.5518C178.619 31.1149 178.01 33.437 176.791 35.518C175.573 37.5736 173.898 39.1851 171.767 40.3524C169.66 41.5198 167.287 42.1035 164.648 42.1035ZM164.648 39.5911C166.755 39.5911 168.658 39.1216 170.358 38.1826C172.058 37.2183 173.391 35.8986 174.355 34.2237C175.32 32.5234 175.802 30.6327 175.802 28.5518C175.802 26.4708 175.32 24.5928 174.355 22.9179C173.391 21.2176 172.058 19.8979 170.358 18.9589C168.658 17.9946 166.755 17.5124 164.648 17.5124C162.542 17.5124 160.626 17.9946 158.9 18.9589C157.2 19.8979 155.855 21.2176 154.865 22.9179C153.901 24.5928 153.418 26.4708 153.418 28.5518C153.418 30.6327 153.901 32.5234 154.865 34.2237C155.855 35.8986 157.2 37.2183 158.9 38.1826C160.626 39.1216 162.542 39.5911 164.648 39.5911Z" fill="#FAFAFA"/>
<path d="M222.162 41.8751L216.071 33.3101C215.386 33.3862 214.675 33.4243 213.94 33.4243H206.783V41.8751H203.966V15.2284H213.94C217.34 15.2284 220.005 16.0405 221.934 17.6647C223.862 19.2889 224.827 21.5221 224.827 24.3644C224.827 26.4454 224.294 28.2092 223.228 29.6557C222.187 31.0768 220.69 32.1046 218.736 32.7391L225.245 41.8751H222.162ZM213.863 31.0261C216.503 31.0261 218.52 30.4424 219.916 29.275C221.312 28.1076 222.01 26.4708 222.01 24.3644C222.01 22.2073 221.312 20.5577 219.916 19.4157C218.52 18.2484 216.503 17.6647 213.863 17.6647H206.783V31.0261H213.863Z" fill="#FAFAFA"/>
<path d="M250.509 15.2284H261.358C264.174 15.2284 266.662 15.7994 268.819 16.9414C270.976 18.058 272.651 19.6315 273.843 21.6617C275.036 23.6665 275.633 25.9632 275.633 28.5518C275.633 31.1403 275.036 33.4497 273.843 35.4799C272.651 37.4847 270.976 39.0582 268.819 40.2002C266.662 41.3168 264.174 41.8751 261.358 41.8751H250.509V15.2284ZM261.205 39.4388C263.54 39.4388 265.583 38.982 267.334 38.0684C269.085 37.1295 270.443 35.8479 271.407 34.2237C272.372 32.5741 272.854 30.6835 272.854 28.5518C272.854 26.42 272.372 24.5421 271.407 22.9179C270.443 21.2683 269.085 19.9867 267.334 19.0731C265.583 18.1342 263.54 17.6647 261.205 17.6647H253.325V39.4388H261.205Z" fill="#FAFAFA"/>
<path d="M317.779 28.133C319.53 28.5137 320.875 29.275 321.814 30.417C322.778 31.5336 323.261 32.9802 323.261 34.7566C323.261 37.0406 322.41 38.8044 320.71 40.0479C319.035 41.266 316.548 41.8751 313.249 41.8751H300.992V15.2284H312.488C315.457 15.2284 317.754 15.8248 319.378 17.0175C321.027 18.2103 321.852 19.8979 321.852 22.0804C321.852 23.5523 321.484 24.8085 320.748 25.849C320.038 26.8641 319.048 27.6255 317.779 28.133ZM303.808 17.5505V27.2194H312.297C314.454 27.2194 316.117 26.8134 317.284 26.0013C318.451 25.1638 319.035 23.9584 319.035 22.3849C319.035 20.8115 318.451 19.6188 317.284 18.8067C316.117 17.9692 314.454 17.5505 312.297 17.5505H303.808ZM313.211 39.553C315.596 39.553 317.398 39.147 318.616 38.3349C319.835 37.5228 320.444 36.2539 320.444 34.5282C320.444 31.2037 318.033 29.5415 313.211 29.5415H303.808V39.553H313.211Z" fill="#FAFAFA"/>
<path d="M360.372 42.1035C357.733 42.1035 355.335 41.5198 353.177 40.3524C351.046 39.1597 349.371 37.5355 348.153 35.4799C346.96 33.4243 346.364 31.1149 346.364 28.5518C346.364 25.9886 346.96 23.6792 348.153 21.6236C349.371 19.568 351.046 17.9565 353.177 16.7891C355.335 15.5964 357.733 15 360.372 15C363.011 15 365.384 15.5837 367.491 16.7511C369.622 17.9184 371.297 19.5426 372.515 21.6236C373.733 23.6792 374.343 25.9886 374.343 28.5518C374.343 31.1149 373.733 33.437 372.515 35.518C371.297 37.5736 369.622 39.1851 367.491 40.3524C365.384 41.5198 363.011 42.1035 360.372 42.1035ZM360.372 39.5911C362.478 39.5911 364.382 39.1216 366.082 38.1826C367.782 37.2183 369.115 35.8986 370.079 34.2237C371.043 32.5234 371.526 30.6327 371.526 28.5518C371.526 26.4708 371.043 24.5928 370.079 22.9179C369.115 21.2176 367.782 19.8979 366.082 18.9589C364.382 17.9946 362.478 17.5124 360.372 17.5124C358.266 17.5124 356.35 17.9946 354.624 18.9589C352.924 19.8979 351.579 21.2176 350.589 22.9179C349.625 24.5928 349.142 26.4708 349.142 28.5518C349.142 30.6327 349.625 32.5234 350.589 34.2237C351.579 35.8986 352.924 37.2183 354.624 38.1826C356.35 39.1216 358.266 39.5911 360.372 39.5911Z" fill="#FAFAFA"/>
<path d="M415.435 41.8751L406.832 30.1506L398.267 41.8751H395.031L405.157 28.1711L395.678 15.2284H398.914L406.946 26.1155L414.94 15.2284H417.985L408.545 28.095L418.708 41.8751H415.435Z" fill="#FAFAFA"/>
<path d="M125.269 15.2284V41.8751H122.947L105.817 20.2532V41.8751H103V15.2284H105.322L122.49 36.8503V15.2284H125.269Z" stroke="#FAFAFA" stroke-width="2" mask="url(#path-1-outside-1)"/>
<path d="M164.648 42.1035C162.009 42.1035 159.611 41.5198 157.454 40.3524C155.322 39.1597 153.647 37.5355 152.429 35.4799C151.236 33.4243 150.64 31.1149 150.64 28.5518C150.64 25.9886 151.236 23.6792 152.429 21.6236C153.647 19.568 155.322 17.9565 157.454 16.7891C159.611 15.5964 162.009 15 164.648 15C167.287 15 169.66 15.5837 171.767 16.7511C173.898 17.9184 175.573 19.5426 176.791 21.6236C178.01 23.6792 178.619 25.9886 178.619 28.5518C178.619 31.1149 178.01 33.437 176.791 35.518C175.573 37.5736 173.898 39.1851 171.767 40.3524C169.66 41.5198 167.287 42.1035 164.648 42.1035ZM164.648 39.5911C166.755 39.5911 168.658 39.1216 170.358 38.1826C172.058 37.2183 173.391 35.8986 174.355 34.2237C175.32 32.5234 175.802 30.6327 175.802 28.5518C175.802 26.4708 175.32 24.5928 174.355 22.9179C173.391 21.2176 172.058 19.8979 170.358 18.9589C168.658 17.9946 166.755 17.5124 164.648 17.5124C162.542 17.5124 160.626 17.9946 158.9 18.9589C157.2 19.8979 155.855 21.2176 154.865 22.9179C153.901 24.5928 153.418 26.4708 153.418 28.5518C153.418 30.6327 153.901 32.5234 154.865 34.2237C155.855 35.8986 157.2 37.2183 158.9 38.1826C160.626 39.1216 162.542 39.5911 164.648 39.5911Z" stroke="#FAFAFA" stroke-width="2" mask="url(#path-1-outside-1)"/>
<path d="M222.162 41.8751L216.071 33.3101C215.386 33.3862 214.675 33.4243 213.94 33.4243H206.783V41.8751H203.966V15.2284H213.94C217.34 15.2284 220.005 16.0405 221.934 17.6647C223.862 19.2889 224.827 21.5221 224.827 24.3644C224.827 26.4454 224.294 28.2092 223.228 29.6557C222.187 31.0768 220.69 32.1046 218.736 32.7391L225.245 41.8751H222.162ZM213.863 31.0261C216.503 31.0261 218.52 30.4424 219.916 29.275C221.312 28.1076 222.01 26.4708 222.01 24.3644C222.01 22.2073 221.312 20.5577 219.916 19.4157C218.52 18.2484 216.503 17.6647 213.863 17.6647H206.783V31.0261H213.863Z" stroke="#FAFAFA" stroke-width="2" mask="url(#path-1-outside-1)"/>
<path d="M250.509 15.2284H261.358C264.174 15.2284 266.662 15.7994 268.819 16.9414C270.976 18.058 272.651 19.6315 273.843 21.6617C275.036 23.6665 275.633 25.9632 275.633 28.5518C275.633 31.1403 275.036 33.4497 273.843 35.4799C272.651 37.4847 270.976 39.0582 268.819 40.2002C266.662 41.3168 264.174 41.8751 261.358 41.8751H250.509V15.2284ZM261.205 39.4388C263.54 39.4388 265.583 38.982 267.334 38.0684C269.085 37.1295 270.443 35.8479 271.407 34.2237C272.372 32.5741 272.854 30.6835 272.854 28.5518C272.854 26.42 272.372 24.5421 271.407 22.9179C270.443 21.2683 269.085 19.9867 267.334 19.0731C265.583 18.1342 263.54 17.6647 261.205 17.6647H253.325V39.4388H261.205Z" stroke="#FAFAFA" stroke-width="2" mask="url(#path-1-outside-1)"/>
<path d="M317.779 28.133C319.53 28.5137 320.875 29.275 321.814 30.417C322.778 31.5336 323.261 32.9802 323.261 34.7566C323.261 37.0406 322.41 38.8044 320.71 40.0479C319.035 41.266 316.548 41.8751 313.249 41.8751H300.992V15.2284H312.488C315.457 15.2284 317.754 15.8248 319.378 17.0175C321.027 18.2103 321.852 19.8979 321.852 22.0804C321.852 23.5523 321.484 24.8085 320.748 25.849C320.038 26.8641 319.048 27.6255 317.779 28.133ZM303.808 17.5505V27.2194H312.297C314.454 27.2194 316.117 26.8134 317.284 26.0013C318.451 25.1638 319.035 23.9584 319.035 22.3849C319.035 20.8115 318.451 19.6188 317.284 18.8067C316.117 17.9692 314.454 17.5505 312.297 17.5505H303.808ZM313.211 39.553C315.596 39.553 317.398 39.147 318.616 38.3349C319.835 37.5228 320.444 36.2539 320.444 34.5282C320.444 31.2037 318.033 29.5415 313.211 29.5415H303.808V39.553H313.211Z" stroke="#FAFAFA" stroke-width="2" mask="url(#path-1-outside-1)"/>
<path d="M360.372 42.1035C357.733 42.1035 355.335 41.5198 353.177 40.3524C351.046 39.1597 349.371 37.5355 348.153 35.4799C346.96 33.4243 346.364 31.1149 346.364 28.5518C346.364 25.9886 346.96 23.6792 348.153 21.6236C349.371 19.568 351.046 17.9565 353.177 16.7891C355.335 15.5964 357.733 15 360.372 15C363.011 15 365.384 15.5837 367.491 16.7511C369.622 17.9184 371.297 19.5426 372.515 21.6236C373.733 23.6792 374.343 25.9886 374.343 28.5518C374.343 31.1149 373.733 33.437 372.515 35.518C371.297 37.5736 369.622 39.1851 367.491 40.3524C365.384 41.5198 363.011 42.1035 360.372 42.1035ZM360.372 39.5911C362.478 39.5911 364.382 39.1216 366.082 38.1826C367.782 37.2183 369.115 35.8986 370.079 34.2237C371.043 32.5234 371.526 30.6327 371.526 28.5518C371.526 26.4708 371.043 24.5928 370.079 22.9179C369.115 21.2176 367.782 19.8979 366.082 18.9589C364.382 17.9946 362.478 17.5124 360.372 17.5124C358.266 17.5124 356.35 17.9946 354.624 18.9589C352.924 19.8979 351.579 21.2176 350.589 22.9179C349.625 24.5928 349.142 26.4708 349.142 28.5518C349.142 30.6327 349.625 32.5234 350.589 34.2237C351.579 35.8986 352.924 37.2183 354.624 38.1826C356.35 39.1216 358.266 39.5911 360.372 39.5911Z" stroke="#FAFAFA" stroke-width="2" mask="url(#path-1-outside-1)"/>
<path d="M415.435 41.8751L406.832 30.1506L398.267 41.8751H395.031L405.157 28.1711L395.678 15.2284H398.914L406.946 26.1155L414.94 15.2284H417.985L408.545 28.095L418.708 41.8751H415.435Z" stroke="#FAFAFA" stroke-width="2" mask="url(#path-1-outside-1)"/>
<circle cx="30" cy="30" r="30" fill="#0D6299"/>
<path fill-rule="evenodd" clip-rule="evenodd" d="M13.2559 54.8957V5.10361C15.1993 3.79394 17.3044 2.70583 19.5349 1.87549V58.1238C17.3044 57.2934 15.1993 56.2053 13.2559 54.8957Z" fill="#F1DD25"/>
<path fill-rule="evenodd" clip-rule="evenodd" d="M59.7994 33.4883C59.9319 32.3439 60 31.1799 60 30C60 29.059 59.9567 28.1281 59.8719 27.2092L0.128088 27.2092C0.0433246 28.1281 0 29.059 0 30C0 31.1799 0.0681176 32.3439 0.200635 33.4883L59.7994 33.4883Z" fill="#F1DD25"/>
</svg>
